<svg version="1.2" xmlns="http://www.w3.org/2000/svg" viewBox="0 0 169 40" width="169" height="40">
	<title>dexview-full-svg</title>
	<style>
		.s0 { fill: #ffffff } 
	</style>
	<g id="Layer">
		<path id="Layer" class="s0" d="m12.5 22.2c-1 0-1.8-0.8-1.8-1.9 0-1 0.8-1.8 1.8-1.8 1.1 0 1.9 0.8 1.9 1.8 0 1.1-0.8 1.9-1.9 1.9zm14 0c-1 0-1.9-0.8-1.9-1.9 0-1 0.9-1.8 1.9-1.8 1 0 1.8 0.8 1.8 1.8 0 1.1-0.8 1.9-1.8 1.9zm-1.3 17.7c-1.6-4-2.8-9.1-3.3-14.1 8-0.3 14.2-2.6 14.2-5.5 0-1.9-3-3.6-7.5-4.6l-2.4-8.2-2.2 7.5q-1-0.1-2.1-0.1-1-0.1-2-0.1-1.1 0-2.1 0.1-1 0-2 0.1l-2.2-7.5-2.4 8.2c-4.5 1-7.5 2.7-7.5 4.6 0 2.9 6.1 5.2 14.1 5.5-0.5 5-1.6 10.1-3.2 14.1-8.4-2.4-14.6-10.2-14.6-19.6 0-11.2 8.9-20.3 19.9-20.3 11 0 19.9 9.1 19.9 20.3 0 9.4-6.2 17.2-14.6 19.6z"/>
	</g>
	<g id="Layer">
		<path id="Layer" fill-rule="evenodd" class="s0" d="m50.3 29.3v-19.1h7c5.8 0 9.4 3.6 9.4 9.6 0 6-3.6 9.5-9.4 9.5 0 0-7 0-7 0zm6.9-3.9c3.2 0 4.9-1.5 4.9-5.6 0-4.1-1.7-5.6-5-5.6h-2.2v11.2zm12.3-15.2h13.2v3.8h-8.6v3.9h8v3.8h-8v3.9h8.6v3.7h-13.2zm24.3 6.1h0.1l3.5-6.1h5.2l-5.8 9.6 6 9.6h-5.3l-3.6-6.1h-0.1l-3.6 6.1h-5.3l5.9-9.6-5.7-9.6h5.2zm19.8 8h0.1l4.3-14h5.1l-6.4 19.1h-6.1l-6.4-19.1h5.1zm13.9-10.9c-1.3 0-2.3-1-2.3-2.2 0-1.2 1-2.2 2.3-2.2 1.3 0 2.3 1 2.3 2.2 0 1.2-1 2.2-2.3 2.2zm-2.3 1.7h4.6v14.3h-4.6zm6.9 7.3c0-4.5 2.8-7.5 7.1-7.5 4.1 0 6.9 2.6 6.9 7.4v1.1h-9.5v0.1c0 1.8 1.1 2.9 2.8 2.9 1.2 0 2.1-0.5 2.5-1.4l4.2 0.1c-0.5 2.8-3 4.6-6.8 4.6-4.5 0-7.2-2.8-7.2-7.3zm9.8-1.7c0-1.4-1.1-2.5-2.6-2.5-1.5 0-2.6 1.1-2.7 2.5zm5.4-5.6h4.5l2 9.2h0.1l2-9.2h4.5l2.1 9.1h0.1l1.9-9.1h4.6l-3.8 14.4h-4.8l-2.3-8.4h-0.1l-2.2 8.4h-4.9z"/>
	</g>
</svg>
